<svg width="15" height="16" viewBox="0 0 15 16" fill="none" xmlns="http://www.w3.org/2000/svg">
<path d="M6.5 15.3H2C1.44772 15.3 1 14.8523 1 14.3V2C1 1.44772 1.44772 1 2 1H8.25H9.59971C9.85666 1 10.1037 1.09891 10.2897 1.27621L13.69 4.51782C13.888 4.70654 14 4.96811 14 5.24161V6.005V7.19667V14.3C14 14.8523 13.5523 15.3 13 15.3H6.5Z" fill="#EDB200"/>
<path d="M14 6.005V5.24161C14 4.96811 13.888 4.70654 13.69 4.51782L10.2897 1.27621C10.1037 1.09891 9.85666 1 9.59971 1H8.25M14 6.005V7.19667V14.3C14 14.8523 13.5523 15.3 13 15.3H6.5H2C1.44772 15.3 1 14.8523 1 14.3V2C1 1.44772 1.44772 1 2 1H8.25M14 6.005H9.25C8.69772 6.005 8.25 5.55728 8.25 5.005V1" stroke="black"/>
</svg>
