<svg draggable="false" width="21" height="21" viewBox="0 0 21 21" fill="none" xmlns="http://www.w3.org/2000/svg">
<path d="M7.56716 18.1429H2C1.44771 18.1429 1 17.6951 1 17.1429V2C1 1.44771 1.44772 1 2 1H9.65672M16.5224 8.42857V7M16.5224 7V5.99853C16.5224 5.72571 16.4109 5.46475 16.2138 5.27611L12.0363 1.27758C11.8502 1.09944 11.6025 1 11.3448 1H9.65672M16.5224 7H10.6567C10.1044 7 9.65672 6.55229 9.65672 6V1M16.5224 12.1429V16.5714M16.5224 21V16.5714M16.5224 16.5714H11.7463M16.5224 16.5714H21" stroke="#EDB200" stroke-width="2"/>
</svg>
