<svg width="75" height="36" viewBox="0 0 75 36" fill="none" xmlns="http://www.w3.org/2000/svg">
<path d="M20.2046 18C15.4658 26.4375 11.3904 26.4375 3 26.4375" stroke="#080909" stroke-width="6" stroke-linecap="round"/>
<path d="M20.2046 18C15.4658 9.5625 11.3904 9.56248 3 9.56248" stroke="#080909" stroke-width="6" stroke-linecap="round"/>
<path d="M29.5945 3C20.4292 3 20.4292 7.85142 20.4292 17.6887C20.4292 27.1363 20.4292 33 29.5944 33" stroke="#080909" stroke-width="6" stroke-linecap="round"/>
<path d="M20.2046 18C15.4658 26.4375 11.3904 26.4375 3 26.4375" stroke="#F8F9FA" stroke-width="4" stroke-linecap="round"/>
<path d="M20.2046 18C15.4658 9.5625 11.3904 9.56248 3 9.56248" stroke="#F8F9FA" stroke-width="4" stroke-linecap="round"/>
<path d="M29.5945 3C20.4292 3 20.4292 7.85142 20.4292 17.6887C20.4292 27.1363 20.4292 33 29.5944 33" stroke="#F8F9FA" stroke-width="4" stroke-linecap="round"/>
<path d="M46.3904 3C55.5557 3 55.5557 7.85142 55.5557 17.6887C55.5557 27.1363 55.5557 33 46.3904 33" stroke="#7B7B7B" stroke-width="4" stroke-linecap="round"/>
<path d="M55.7954 18C60.5342 26.4375 64.6096 26.4375 73 26.4375" stroke="#7B7B7B" stroke-width="4" stroke-linecap="round"/>
<path d="M55.7954 18C60.5342 9.5625 64.6096 9.56248 73 9.56248" stroke="#7B7B7B" stroke-width="4" stroke-linecap="round"/>
<path d="M32.5701 30.2009L42.1591 6.2009" stroke="#EDB200" stroke-width="4" stroke-linecap="round"/>
</svg>
