<svg width="20" height="20" viewBox="0 0 20 20" fill="none" xmlns="http://www.w3.org/2000/svg">
<path d="M1 1V18.3925C1 18.6687 1.22386 18.8925 1.5 18.8925H15.3635M1 1V18.4962C1 18.7738 1.22614 18.9983 1.50374 18.9962L15.3635 18.8925M1 1H10.2377M15.3635 18.8925V11.8M10.2377 1V5.22836C10.2377 5.5045 10.4615 5.72836 10.7377 5.72836H12.0402M10.2377 1L13.899 3.63284M12.239 12.3333L18.8158 5.98254C18.8789 5.92162 18.926 5.84527 18.9456 5.75978C19.2036 4.63155 18.5433 3.70279 16.9835 3.88053C16.8821 3.89209 16.7884 3.93928 16.7145 4.00977L10.2377 10.1881M12.239 12.3333L9.59868 13.3584C9.17044 13.5247 8.76346 13.074 8.97244 12.6649L10.2377 10.1881M12.239 12.3333L10.2377 10.1881M3.53473 8.46866H7.98459M3.53473 11.5313H7.75928M6.85804 14.7015H3.53473" stroke="#656A6F" stroke-linecap="round" stroke-linejoin="round"/>
</svg>
