<svg width="32" height="16" viewBox="0 0 32 16" fill="none" xmlns="http://www.w3.org/2000/svg">
<path d="M1.3095 14.8538C0.401164 14.7648 1.59342 10.7084 3.56693 9.57796C3.79543 9.44708 4.0721 9.46714 4.30915 9.58179C5.44835 10.1327 7.10783 10.8889 9.46045 9.49239M1.3095 14.8538C2.75014 14.995 5.60482 14.9578 7.06958 14.9056C7.58229 14.8874 7.93676 14.4645 7.9663 13.9523C8.03812 12.7071 8.39534 10.6941 9.46045 9.49239M1.3095 14.8538C0.355257 14.7603 1.7193 10.2882 3.87197 9.42988C3.91475 9.41282 3.96175 9.41505 4.00341 9.4347C5.14439 9.9727 6.88809 11.0194 9.46045 9.49239M1.3095 14.8538C3.07416 15.0268 6.96044 14.932 7.81508 14.87C7.90483 14.8635 7.96289 14.7863 7.95816 14.6962C7.90712 13.7236 8.13885 10.9834 9.46045 9.49239M30.6905 14.9015C31.6447 14.808 30.2807 10.3359 28.128 9.47754C28.0852 9.46048 28.0383 9.46271 27.9966 9.48235C26.8556 10.0204 25.1119 11.067 22.5395 9.54004C23.8611 11.0311 24.0929 13.7713 24.0418 14.7438C24.0371 14.834 24.0952 14.9111 24.1849 14.9177C25.0396 14.9797 28.9258 15.0744 30.6905 14.9015ZM19.9124 8.82745C21.9012 10.2443 22.9588 12.5241 22.8997 14.1323C22.8837 14.5686 22.4856 14.8538 22.0491 14.8538H9.7618C9.48804 14.8538 9.20945 14.7421 9.13933 14.4774C8.81104 13.2385 9.92451 10.209 11.9909 8.72618C12.2622 8.53151 12.6191 8.52984 12.9219 8.67069C15.2617 9.75933 16.7609 9.77076 18.9558 8.76422C19.2673 8.62135 19.6332 8.62859 19.9124 8.82745Z" stroke="#656A6F" stroke-linejoin="round"/>
<path d="M9.39884 6.06458C9.39884 7.48873 8.24797 8.64082 6.83126 8.64082C5.41455 8.64082 4.26367 7.48873 4.26367 6.06458C4.26367 4.64044 5.41455 3.48835 6.83126 3.48835C8.24797 3.48835 9.39884 4.64044 9.39884 6.06458Z" stroke="#656A6F"/>
<path d="M27.6293 5.8888C27.6293 7.31294 26.4784 8.46503 25.0617 8.46503C23.645 8.46503 22.4941 7.31294 22.4941 5.8888C22.4941 4.46465 23.645 3.31256 25.0617 3.31256C26.4784 3.31256 27.6293 4.46465 27.6293 5.8888Z" stroke="#656A6F"/>
<path d="M19.7406 4.30673C19.7406 6.41046 18.0404 8.11346 15.946 8.11346C13.8516 8.11346 12.1514 6.41046 12.1514 4.30673C12.1514 2.203 13.8516 0.5 15.946 0.5C18.0404 0.5 19.7406 2.203 19.7406 4.30673Z" stroke="#656A6F"/>
</svg>
