<svg width="188" height="194" viewBox="0 0 188 194" fill="none" xmlns="http://www.w3.org/2000/svg">
<path d="M3 186.459L37.5 176.459L54 159.959M54 159.959C87.7941 186.4 105.748 184.636 136.5 159.959M54 159.959C45.1383 149.486 38.8726 144.349 34.9706 125.958M136.5 159.959L153.5 176.459L185 186.459M136.5 159.959C144.968 148.147 150.358 139.514 153.73 125.958M37.5 36.9585H30C30 84.4085 31.6073 110.107 34.9706 125.958M37.5 36.9585C66.5 -10.5416 125.5 -6.0416 150.5 36.9585M37.5 36.9585C81.0807 23.5609 105.895 23.4286 150.5 36.9585M150.5 36.9585H159C159 84.6275 157.925 109.1 153.73 125.958M46 66.9584C54 57.9584 69.7269 63.6975 83 78.9584M62.5 95.9584H78.5M34.9706 125.958L53.4853 121.958M72 117.958L53.4853 121.958M53.4853 121.958C61.5 149.958 78.5 150.958 88.5 125.958C93 125.958 96.5 125.958 102 125.958C109.5 150.958 125 150.958 135 121.958M135 121.958L117.5 117.958M135 121.958L153.73 125.958M88.5 153.458L94.5 191.458L102 153.458M110.5 95.9584H126.5M142.5 66.9584C134.5 57.9584 118.773 63.6975 105.5 78.9584" stroke="#4B4F53" stroke-width="4" stroke-linecap="round" stroke-linejoin="round"/>
</svg>
