<svg draggable="false" width="21" height="21" viewBox="0 0 21 21" fill="none" xmlns="http://www.w3.org/2000/svg">
<path d="M8.71429 16.5556H2C1.44772 16.5556 1 16.1078 1 15.5556V7.11111M19.2857 8.77778V5.86111M19.2857 5.86111V3.94444C19.2857 3.39216 18.838 2.94444 18.2857 2.94444H9.68651C9.14956 2.94444 8.71429 2.50917 8.71429 1.97222V1.97222C8.71429 1.43528 8.27901 1 7.74206 1H2C1.44772 1 1 1.44771 1 2V7.11111M19.2857 5.86111L9.69907 5.73166C9.31452 5.72647 9 6.03677 9 6.42136V6.42136C9 6.8023 8.69119 7.11111 8.31024 7.11111H1M16.7143 11.8333V16.4167M16.7143 21V16.4167M16.7143 16.4167H11.8571M16.7143 16.4167H21" stroke="#EDB200" stroke-width="2"/>
</svg>
