<svg width="25" height="25" viewBox="0 0 25 25" fill="none" xmlns="http://www.w3.org/2000/svg">
<path d="M12.1482 5.11722L14.1014 3.1641C14.6092 2.65625 15.2121 2.25341 15.8756 1.97856C16.5392 1.70372 17.2503 1.56226 17.9685 1.56226C18.6867 1.56226 19.3979 1.70372 20.0614 1.97856C20.725 2.25341 21.3279 2.65625 21.8357 3.1641C22.3436 3.67194 22.7464 4.27484 23.0213 4.93838C23.2961 5.60191 23.4376 6.31308 23.4376 7.03128C23.4376 7.74949 23.2961 8.46066 23.0213 9.12419C22.7464 9.78773 22.3436 10.3906 21.8357 10.8985L17.9295 14.8047C17.4217 15.3126 16.8188 15.7155 16.1552 15.9903C15.4917 16.2652 14.7805 16.4067 14.0623 16.4067C13.3441 16.4067 12.6329 16.2652 11.9694 15.9903C11.3058 15.7155 10.7029 15.3126 10.1951 14.8047C9.98822 14.5824 9.87555 14.2886 9.8808 13.985C9.88604 13.6814 10.0088 13.3916 10.2232 13.1766C10.4382 12.9622 10.728 12.8394 11.0316 12.8342C11.3352 12.8289 11.6291 12.9416 11.8514 13.1485C12.1414 13.4394 12.486 13.6702 12.8654 13.8277C13.2448 13.9852 13.6515 14.0663 14.0623 14.0663C14.4731 14.0663 14.8798 13.9852 15.2592 13.8277C15.6386 13.6702 15.9832 13.4394 16.2732 13.1485L20.1795 9.24222C20.7373 8.65012 21.0426 7.86398 21.0305 7.05057C21.0183 6.23716 20.6898 5.46046 20.1146 4.88523C19.5394 4.31 18.7627 3.98149 17.9493 3.96937C17.1358 3.95726 16.3497 4.2625 15.7576 4.82035L13.8045 6.77347C13.5822 6.98036 13.2884 7.09302 12.9847 7.08778C12.6811 7.08253 12.3914 6.95979 12.1764 6.74535C11.9619 6.53034 11.8392 6.24058 11.8339 5.93696C11.8287 5.63334 11.9413 5.33951 12.1482 5.11722ZM4.8201 20.1797C5.11012 20.4706 5.45471 20.7015 5.8341 20.859C6.2135 21.0165 6.62025 21.0975 7.03104 21.0975C7.44183 21.0975 7.84858 21.0165 8.22798 20.859C8.60738 20.7015 8.95196 20.4706 9.24198 20.1797L11.1951 18.2266C11.4174 18.0197 11.7112 17.907 12.0148 17.9123C12.3185 17.9175 12.6082 18.0403 12.8232 18.2547C13.0377 18.4697 13.1604 18.7595 13.1657 19.0631C13.1709 19.3667 13.0582 19.6606 12.8514 19.8828L10.8982 21.836C10.3904 22.3438 9.78748 22.7467 9.12395 23.0215C8.46041 23.2964 7.74924 23.4378 7.03104 23.4378C5.58056 23.4378 4.1895 22.8616 3.16385 21.836C2.13821 20.8103 1.56201 19.4193 1.56201 17.9688C1.56201 16.5183 2.13821 15.1272 3.16385 14.1016L7.0701 10.1953C7.57793 9.68747 8.18083 9.28459 8.84436 9.00973C9.5079 8.73486 10.2191 8.59339 10.9373 8.59339C11.6555 8.59339 12.3667 8.73486 13.0302 9.00973C13.6938 9.28459 14.2967 9.68747 14.8045 10.1953C15.0114 10.4176 15.124 10.7115 15.1188 11.0151C15.1135 11.3187 14.9908 11.6085 14.7764 11.8235C14.5613 12.0379 14.2716 12.1607 13.968 12.1659C13.6643 12.1711 13.3705 12.0585 13.1482 11.8516C12.8582 11.5607 12.5136 11.3298 12.1342 11.1723C11.7548 11.0149 11.3481 10.9338 10.9373 10.9338C10.5265 10.9338 10.1198 11.0149 9.74035 11.1723C9.36096 11.3298 9.01637 11.5607 8.72635 11.8516L4.8201 15.7578C4.52918 16.0479 4.29835 16.3925 4.14085 16.7718C3.98336 17.1512 3.90228 17.558 3.90228 17.9688C3.90228 18.3796 3.98336 18.7863 4.14085 19.1657C4.29835 19.5451 4.52918 19.8897 4.8201 20.1797Z" fill="#343A40"/>
</svg>
