<svg width="126" height="57" viewBox="0 0 126 57" fill="none" xmlns="http://www.w3.org/2000/svg">
<path d="M31.7562 28.0714C23.8356 42.1741 17.024 42.1741 3 42.1741" stroke="#080909" stroke-width="6" stroke-linecap="round"/>
<path d="M31.7562 28.0714C23.8356 13.9688 17.024 13.9687 3 13.9687" stroke="#080909" stroke-width="6" stroke-linecap="round"/>
<path d="M47.4509 3C32.1318 3 32.1318 11.1088 32.1318 27.5511C32.1318 43.3422 32.1318 53.1429 47.4509 53.1429" stroke="#080909" stroke-width="6" stroke-linecap="round"/>
<path d="M31.7562 28.0714C23.8356 42.1741 17.024 42.1741 3 42.1741" stroke="#F8F9FA" stroke-width="6" stroke-linecap="round"/>
<path d="M31.7562 28.0714C23.8356 13.9688 17.024 13.9687 3 13.9687" stroke="#F8F9FA" stroke-width="6" stroke-linecap="round"/>
<path d="M47.4509 3C32.1318 3 32.1318 11.1088 32.1318 27.5511C32.1318 43.3422 32.1318 53.1429 47.4509 53.1429" stroke="#F8F9FA" stroke-width="6" stroke-linecap="round"/>
<path d="M78.0994 3C93.4185 3 93.4185 11.1088 93.4185 27.5511C93.4185 43.3422 93.4185 53.1429 78.0994 53.1429" stroke="#7B7B7B" stroke-width="6" stroke-linecap="round"/>
<path d="M93.8189 28.0714C101.74 42.174 108.551 42.1741 122.575 42.1741" stroke="#7B7B7B" stroke-width="6" stroke-linecap="round"/>
<path d="M93.8189 28.0714C101.74 13.9688 108.551 13.9687 122.575 13.9687" stroke="#7B7B7B" stroke-width="6" stroke-linecap="round"/>
<path d="M55 48.4643L71.0274 8.35006" stroke="#EDB200" stroke-width="6" stroke-linecap="round"/>
</svg>
